<svg width="233" height="62" viewBox="0 0 233 62" fill="none" xmlns="http://www.w3.org/2000/svg">
<path d="M64.2729 41.3046H61.6591C61.3906 41.3046 61.2568 41.1603 61.2568 40.8714V21.0711C61.2568 20.7826 61.3906 20.6383 61.6591 20.6383H64.7901C65.0199 20.6383 65.1731 20.7441 65.2497 20.956L68.7539 27.5102C69.4816 28.877 70.295 30.5709 71.1956 32.5921H71.3105C72.2102 30.5713 73.0241 28.8774 73.7521 27.5102L77.2278 20.956C77.3427 20.7445 77.5051 20.6383 77.716 20.6383H80.8179C81.1054 20.6383 81.2489 20.7826 81.2489 21.0711V40.8718C81.2489 41.1607 81.1054 41.305 80.8179 41.305H78.2041C77.9357 41.305 77.8018 41.1607 77.8018 40.8718V35.0458C77.8018 32.7745 77.878 29.7523 78.0316 25.9792L77.9453 25.9504C77.3709 27.2018 76.509 28.9824 75.3602 31.2922L72.8326 36.2295C72.7367 36.4414 72.5742 36.5476 72.3445 36.5476H70.1616C69.9318 36.5476 69.769 36.4418 69.6734 36.2295L67.1459 31.2922C65.997 28.9824 65.1352 27.2018 64.5607 25.9504L64.4745 25.9792C64.6276 29.7523 64.7042 32.7745 64.7042 35.0458V40.871C64.7038 41.1603 64.5603 41.3046 64.2729 41.3046Z" fill="#253C77"/>
<path d="M97.2553 35.7971C97.2553 37.587 96.6619 39.0073 95.4744 40.0556C94.2868 41.1052 92.6977 41.6295 90.7063 41.6295C88.7145 41.6295 87.1255 41.1052 85.9379 40.0556C84.7507 39.0069 84.1569 37.587 84.1569 35.7971V31.928C84.1569 30.1186 84.7503 28.6752 85.9379 27.5965C87.1251 26.5186 88.7141 25.9796 90.7063 25.9796C92.6977 25.9796 94.2868 26.5186 95.4744 27.5965C96.6615 28.6752 97.2553 30.1186 97.2553 31.928V35.7971ZM87.5181 35.7971C87.5181 37.6838 88.5807 38.6268 90.7063 38.6268C91.7403 38.6268 92.53 38.3865 93.0758 37.9047C93.6217 37.4237 93.8942 36.721 93.8942 35.7971V31.928C93.8942 30.9846 93.6164 30.258 93.0613 29.7478C92.5058 29.2385 91.721 28.9828 90.7059 28.9828C89.6715 28.9828 88.8818 29.2332 88.336 29.7337C87.7902 30.2341 87.5173 30.9655 87.5173 31.928V35.7971H87.5181Z" fill="#253C77"/>
<path d="M101.564 45.1805H99.2374C98.9689 45.1805 98.8354 45.046 98.8354 44.7765V38.7414C98.8354 38.4724 98.9693 38.3374 99.2374 38.3374H99.8694C100.502 37.8949 100.99 36.8896 101.334 35.3201C101.679 33.7515 102.014 30.8877 102.34 26.7301C102.378 26.4606 102.522 26.326 102.771 26.326H112.307C112.594 26.326 112.738 26.4606 112.738 26.7301V38.3374H114.203C114.49 38.3374 114.634 38.4817 114.634 38.7706V44.7765C114.634 45.046 114.49 45.1805 114.203 45.1805H111.876C111.589 45.1805 111.445 45.046 111.445 44.7765V41.3045H101.995V44.7765C101.995 45.046 101.851 45.1805 101.564 45.1805ZM105.442 29.2713C105.058 34.0453 104.398 37.067 103.46 38.3374H109.434V29.2713H105.442Z" fill="#253C77"/>
<path d="M125.979 37.2406V26.7305C125.979 26.4611 126.122 26.3265 126.41 26.3265H128.88C129.167 26.3265 129.311 26.4611 129.311 26.7305V40.33C129.311 44.8155 127.176 47.0576 122.906 47.0576C120.608 47.0576 118.731 46.4514 117.276 45.2386C117.065 45.0842 117.036 44.8925 117.189 44.6615L118.425 42.9C118.578 42.6496 118.759 42.6013 118.97 42.7557C120.253 43.6412 121.556 44.0841 122.877 44.0841C123.949 44.0841 124.753 43.8 125.29 43.2323C125.825 42.6646 126.065 41.6969 126.007 40.3304C124.897 40.6769 123.872 40.8503 122.934 40.8503C121.287 40.8503 119.851 40.3357 118.626 39.3056C117.4 38.2763 116.787 36.8276 116.787 34.9603V26.7305C116.787 26.4611 116.931 26.3265 117.218 26.3265H119.717C119.985 26.3265 120.12 26.4611 120.12 26.7305V34.8153C120.12 35.8543 120.426 36.6153 121.039 37.0963C121.651 37.5777 122.436 37.818 123.394 37.818C124.37 37.8375 125.232 37.6446 125.979 37.2406Z" fill="#253C77"/>
<path d="M137.152 36.3737C136.788 38.2025 136.233 39.4879 135.486 40.2287C134.739 40.9694 133.551 41.369 131.924 41.4269C131.655 41.4269 131.522 41.2827 131.522 40.9937V38.8857C131.522 38.6357 131.656 38.4817 131.924 38.4238C132.479 38.3857 132.915 38.1547 133.231 37.7308C133.547 37.3078 133.81 36.5472 134.021 35.4498C134.346 33.544 134.586 30.6377 134.739 26.7297C134.777 26.4602 134.921 26.3257 135.17 26.3257H144.936C145.223 26.3257 145.367 26.4602 145.367 26.7297V40.871C145.367 41.1599 145.223 41.3042 144.936 41.3042H142.465C142.178 41.3042 142.034 41.1599 142.034 40.871V29.2713H137.841C137.745 32.0244 137.515 34.3914 137.152 36.3737Z" fill="#253C77"/>
<path d="M154.659 41.3046H148.713C148.426 41.3046 148.282 41.1603 148.282 40.8714V26.7305C148.282 26.4611 148.425 26.3265 148.713 26.3265H151.183C151.471 26.3265 151.614 26.4611 151.614 26.7305V31.199H154.659C156.42 31.199 157.842 31.6516 158.924 32.5561C160.006 33.461 160.547 34.7119 160.547 36.3098C160.547 38.0235 160.025 39.2837 158.982 40.0922C157.938 40.9006 156.497 41.3046 154.659 41.3046ZM151.614 33.9416V38.5324H154.084C156.152 38.5324 157.186 37.7722 157.186 36.2514C157.205 35.4624 156.957 34.8801 156.439 34.5049C155.923 34.1296 155.137 33.9416 154.084 33.9416C154.084 33.942 151.614 33.942 151.614 33.9416Z" fill="#253C77"/>
<path d="M165.053 28.918H170.481C172.837 28.918 174.575 29.4184 175.695 30.4189C176.815 31.4203 177.375 32.9792 177.375 35.0965C177.375 37.0991 176.776 38.6337 175.58 39.7019C174.383 40.7701 172.732 41.3046 170.625 41.3046H163.703C163.53 41.3046 163.444 41.228 163.444 41.0736V20.8689C163.444 20.7149 163.53 20.6379 163.703 20.6379H175.795C175.948 20.6379 176.025 20.7149 176.025 20.8689V21.8792C176.025 22.0335 175.948 22.1101 175.795 22.1101H165.053V28.918ZM165.053 39.8324H170.596C172.262 39.8324 173.54 39.4377 174.431 38.6483C175.322 37.8593 175.767 36.6753 175.767 35.0969C175.767 33.48 175.345 32.2919 174.503 31.5313C173.66 30.7711 172.329 30.3906 170.51 30.3906H165.053V39.8324H165.053Z" fill="#253C77"/>
<path d="M180.19 27.5965C181.606 26.596 183.359 26.0956 185.446 26.0956C187.208 26.0956 188.563 26.5673 189.511 27.5102C190.458 28.4536 190.933 29.8014 190.933 31.5528V40.3301C190.933 40.465 190.865 40.561 190.731 40.619C189.046 41.2738 187.265 41.6008 185.389 41.6008C183.646 41.6008 182.205 41.1968 181.066 40.388C179.927 39.58 179.357 38.4247 179.357 36.9229C179.357 35.4604 179.893 34.3343 180.966 33.5449C182.038 32.7559 183.512 32.3608 185.389 32.3608C186.404 32.3608 187.744 32.5152 189.41 32.8228V31.5816C189.41 28.8673 188.07 27.5102 185.389 27.5102C183.723 27.5102 182.258 27.9053 180.994 28.6943C180.879 28.7908 180.774 28.7713 180.678 28.6364L180.19 27.8855C180.094 27.7509 180.094 27.6541 180.19 27.5965ZM180.908 36.9229C180.908 37.9437 181.319 38.7472 182.143 39.334C182.966 39.9216 184.048 40.2146 185.389 40.2146C186.729 40.2146 188.07 39.9836 189.41 39.5216V34.1507C188.089 33.8618 186.749 33.7175 185.389 33.7175C182.401 33.7175 180.908 34.7857 180.908 36.9229Z" fill="#253C77"/>
<path d="M195.136 41.3046H194.102C193.93 41.3046 193.844 41.228 193.844 41.0736V26.6726C193.844 26.4996 193.93 26.4128 194.102 26.4128H195.136C195.289 26.4128 195.366 26.4996 195.366 26.6726V32.8807H203.61V26.6726C203.61 26.4996 203.686 26.4128 203.839 26.4128H204.873C205.046 26.4128 205.132 26.4996 205.132 26.6726V41.0736C205.132 41.228 205.046 41.3046 204.873 41.3046H203.839C203.686 41.3046 203.61 41.228 203.61 41.0736V34.2666H195.366V41.074C195.366 41.228 195.289 41.3046 195.136 41.3046Z" fill="#253C77"/>
<path d="M219.517 41.312H218.22C218.085 41.312 218.032 41.2816 217.932 41.1669L211.703 34.0944L209.541 36.1234V41.0729C209.541 41.2277 209.464 41.3047 209.31 41.3047H208.301C208.128 41.3047 208.041 41.2277 208.041 41.0729V26.6451C208.041 26.4713 208.128 26.3846 208.301 26.3846H209.31C209.464 26.3846 209.541 26.4717 209.541 26.6451V34.2395L217.528 26.5C217.622 26.4085 217.691 26.3842 217.845 26.3842H219.143C219.239 26.3842 219.302 26.4129 219.33 26.4713C219.359 26.5292 219.335 26.5973 219.259 26.6743L212.742 33.0218L219.662 41.0218C219.811 41.2001 219.684 41.312 219.517 41.312Z" fill="#253C77"/>
<path d="M40.6569 20.6383V13.7494H26.951V20.6383H33.804V27.5268H40.6569V34.4156H47.5099V20.6383H40.6569Z" fill="#253C77"/>
<path d="M47.5099 41.3046H40.6569V48.1935H47.5099V41.3046Z" fill="#253C77"/>
<path d="M40.6569 34.4156H33.8039V41.3045H40.6569V34.4156Z" fill="#253C77"/>
<path d="M33.804 34.4157V27.5268H26.951V20.6383H20.0981V13.7494H13.2451V27.5268H20.0981V34.4157H13.2451V48.1934H20.0981V41.3045H26.951V34.4157H33.804Z" fill="#253C77"/>
<path d="M33.804 41.3046H26.951V48.1935H33.804V41.3046Z" fill="#253C77"/>
</svg>
